<svg width="237" height="311" viewBox="0 0 237 311" fill="none" xmlns="http://www.w3.org/2000/svg"><path fill-rule="evenodd" clip-rule="evenodd" d="M126.351 3.24842C124.268 1.16835 121.444 0 118.5 0C115.556 0 112.732 1.16835 110.649 3.24842L62.5088 51.3809C60.5464 53.4865 59.4781 56.2715 59.5288 59.1491C59.5796 62.0267 60.7456 64.7722 62.781 66.8073C64.8164 68.8424 67.5624 70.0081 70.4405 70.0589C73.3186 70.1096 76.104 69.0415 78.21 67.0795L107.391 37.9038V196.223C107.391 199.168 108.561 201.994 110.644 204.077C112.728 206.16 115.554 207.33 118.5 207.33C121.446 207.33 124.272 206.16 126.356 204.077C128.439 201.994 129.609 199.168 129.609 196.223V37.9038L158.79 67.0795C159.807 68.1708 161.034 69.0461 162.396 69.6532C163.759 70.2603 165.23 70.5867 166.722 70.613C168.213 70.6393 169.695 70.365 171.078 69.8063C172.462 69.2477 173.718 68.4162 174.773 67.3614C175.828 66.3067 176.66 65.0503 177.219 63.6672C177.777 62.2841 178.052 60.8027 178.025 59.3113C177.999 57.8199 177.673 56.3491 177.065 54.9866C176.458 53.624 175.583 52.3978 174.491 51.3809L126.351 3.24842V3.24842ZM22.2188 129.578C22.2188 128.596 22.6089 127.654 23.3034 126.96C23.9978 126.265 24.9397 125.875 25.9219 125.875H62.9531C65.8995 125.875 68.7252 124.705 70.8086 122.622C72.892 120.539 74.0625 117.714 74.0625 114.768C74.0625 111.822 72.892 108.997 70.8086 106.913C68.7252 104.83 65.8995 103.66 62.9531 103.66H25.9219C19.047 103.66 12.4536 106.391 7.59234 111.251C2.73105 116.112 0 122.704 0 129.578V285.083C0 299.389 11.613 311 25.9219 311H211.078C217.953 311 224.546 308.269 229.408 303.409C234.269 298.548 237 291.956 237 285.083V129.578C237 122.704 234.269 116.112 229.408 111.251C224.546 106.391 217.953 103.66 211.078 103.66H174.047C171.1 103.66 168.275 104.83 166.191 106.913C164.108 108.997 162.938 111.822 162.938 114.768C162.938 117.714 164.108 120.539 166.191 122.622C168.275 124.705 171.1 125.875 174.047 125.875H211.078C212.06 125.875 213.002 126.265 213.697 126.96C214.391 127.654 214.781 128.596 214.781 129.578V285.083C214.781 286.064 214.391 287.006 213.697 287.701C213.002 288.395 212.06 288.785 211.078 288.785H25.9219C24.9397 288.785 23.9978 288.395 23.3034 287.701C22.6089 287.006 22.2188 286.064 22.2188 285.083V129.578Z" fill="#525252"/></svg>
